<svg xmlns="http://www.w3.org/2000/svg" aria-labelledby="title desc" viewBox="0 0 256 256"><defs><filter id="softShadow" width="140%" height="140%" x="-20%" y="-20%"><feDropShadow dx="0" dy="6" flood-color="#000" flood-opacity=".22" stdDeviation="6"/></filter><style>.stroke{stroke:#0b1220;stroke-width:7;stroke-linejoin:round}.path{stroke:#0b1220;stroke-width:6;stroke-linecap:round}</style></defs><path fill="none" d="M0 0h256v256H0z"/><g filter="url(#softShadow)"><path d="M96 40q32-32 64 0l16 92H80Z" class="stroke" style="fill:#4f46e5"/><ellipse cx="128" cy="144" class="stroke" rx="96" ry="18" style="fill:#6366f1"/></g><g filter="url(#softShadow)"><path d="m172 92 48-32" style="stroke:#0b1220;stroke-width:6;stroke-linecap:round"/><path d="m220 44 6 14 16 2-16 6-6 14-6-14-16-6 16-2z" style="fill:#fbbf24;stroke:#0b1220;stroke-width:5"/></g><g filter="url(#softShadow)"><path d="M128 162v28M128 190l-36 30M128 190l36 30" class="path"/><circle cx="92" cy="220" r="14" style="fill:#e5e7eb;stroke:#0b1220;stroke-width:5"/><circle cx="164" cy="220" r="14" style="fill:#22c55e;stroke:#0b1220;stroke-width:5"/><path fill="none" stroke="#0b1220" stroke-linecap="round" stroke-linejoin="round" stroke-width="6" d="m156 220 6 6 14-16"/></g></svg>
